<?xml version="1.0" ?><svg id="Layer_1" style="enable-background:new 0 0 60 60;" version="1.1" viewBox="0 0 60 60" xml:space="preserve" xmlns="http://www.w3.org/2000/svg" xmlns:xlink="http://www.w3.org/1999/xlink"><path d="M12.27,36.86c-1.31,1.31-1.75,3.27-1.25,5.54c0.46,2.1,1.7,4.25,3.49,6.04c1.97,1.97,4.4,3.28,6.68,3.61  c0.9,0.13,1.61,0.37,2.17,0.73c2.02,1.29,4.33,1.93,6.64,1.93c2.31,0,4.63-0.64,6.64-1.93c0.57-0.36,1.28-0.6,2.17-0.73  c2.28-0.33,4.71-1.64,6.68-3.61c3.87-3.87,4.86-8.96,2.24-11.57c-1.42-1.42-3.68-1.8-6.11-1.11c0.25-0.92,0.37-1.9,0.37-2.9  c0-5.04-3.26-9.13-7.27-9.13c-1.75,0-3.41,0.79-4.72,2.19c-1.31-1.41-2.98-2.19-4.72-2.19c-4.01,0-7.27,4.1-7.27,9.13  c0,1,0.13,1.98,0.37,2.9C15.95,35.06,13.69,35.44,12.27,36.86z M19.7,38.45c0.39,0.21,0.88,0.14,1.19-0.18  c0.31-0.32,0.38-0.8,0.16-1.19c-0.68-1.21-1.05-2.68-1.05-4.23c0-3.93,2.36-7.13,5.27-7.13c1.46,0,2.88,0.86,3.89,2.35  c0.19,0.29,0.51,0.44,0.83,0.44c0,0,0,0,0,0c0.3,0.02,0.64-0.15,0.83-0.44c1.01-1.49,2.43-2.35,3.89-2.35c2.91,0,5.27,3.2,5.27,7.13  c0,1.55-0.36,3.02-1.05,4.23c-0.22,0.39-0.15,0.88,0.16,1.19c0.31,0.32,0.8,0.39,1.19,0.18c2.44-1.33,4.8-1.4,6.02-0.18  c1.76,1.76,0.74,5.77-2.24,8.75c-1.67,1.67-3.69,2.78-5.55,3.05c-1.18,0.17-2.15,0.5-2.96,1.02c-3.38,2.16-7.75,2.16-11.13,0  c-0.81-0.52-1.78-0.85-2.96-1.02c-1.86-0.27-3.88-1.38-5.55-3.05c-1.52-1.52-2.57-3.32-2.96-5.05c-0.35-1.57-0.09-2.89,0.71-3.69  c0.58-0.58,1.42-0.87,2.4-0.87C17.17,37.4,18.42,37.75,19.7,38.45z"/><path d="M44.99,5.29c-5.53,0-10.03,4.49-10.03,10.01c0,1.2,0.23,2.39,0.64,3.5C33.87,18.25,32,17.95,30,17.95  c-2,0-3.87,0.3-5.61,0.85c0.42-1.11,0.64-2.3,0.64-3.5c0-5.52-4.5-10.01-10.02-10.01C9.49,5.29,5,9.78,5,15.31  s4.49,10.01,10.01,10.01c0.27,0,0.54-0.02,0.81-0.04c-1.33,2.05-2.26,4.47-2.68,7.19c-0.08,0.55,0.29,1.06,0.83,1.14  c0.05,0.01,0.1,0.01,0.16,0.01c0.48,0,0.91-0.35,0.99-0.85c1.21-7.79,7.05-12.82,14.88-12.82s13.67,5.03,14.88,12.82  c0.08,0.55,0.6,0.92,1.14,0.83c0.55-0.08,0.92-0.6,0.83-1.14c-0.42-2.72-1.35-5.14-2.68-7.18c0.27,0.02,0.54,0.04,0.81,0.04  c5.52,0,10.01-4.49,10.01-10.01S50.51,5.29,44.99,5.29z M7,15.31c0-4.42,3.59-8.01,8.01-8.01c4.42,0,8.02,3.59,8.02,8.01  c0,1.74-0.56,3.37-1.59,4.75c-1.35,0.74-2.57,1.66-3.64,2.75c-0.87,0.33-1.83,0.51-2.79,0.51C10.59,23.32,7,19.72,7,15.31z   M44.99,23.32c-0.96,0-1.92-0.18-2.79-0.51c-1.07-1.09-2.29-2.01-3.64-2.75c-1.03-1.38-1.59-3.01-1.59-4.75  c0-4.42,3.6-8.01,8.03-8.01c4.42,0,8.01,3.59,8.01,8.01C53,19.72,49.41,23.32,44.99,23.32z"/><path d="M30,41.45c2.42,0,4.31-1.38,4.31-3.14s-1.9-3.14-4.31-3.14c-2.42,0-4.32,1.38-4.32,3.14S27.58,41.45,30,41.45z M30,37.17  c1.41,0,2.31,0.67,2.31,1.14s-0.9,1.14-2.31,1.14s-2.32-0.67-2.32-1.14S28.59,37.17,30,37.17z"/><path d="M30,49.07c3.57,0,7.14-1.21,10.05-3.61c0.42-0.35,0.48-0.98,0.13-1.41c-0.35-0.43-0.98-0.49-1.41-0.13  c-5.09,4.21-12.47,4.21-17.55,0c-0.42-0.35-1.05-0.29-1.41,0.13c-0.35,0.43-0.29,1.06,0.13,1.41C22.86,47.87,26.43,49.07,30,49.07z"/><path d="M24.16,32.42c0.19,0.18,0.44,0.29,0.71,0.29c0.27,0,0.52-0.11,0.71-0.29c0.09-0.1,0.16-0.21,0.21-0.33  c0.06-0.12,0.08-0.25,0.08-0.38c0-0.07,0-0.13-0.02-0.2c-0.01-0.06-0.03-0.12-0.06-0.18c-0.02-0.06-0.05-0.12-0.09-0.18  c-0.03-0.05-0.08-0.1-0.12-0.15c-0.05-0.04-0.1-0.09-0.15-0.12c-0.06-0.04-0.12-0.07-0.18-0.1c-0.06-0.02-0.12-0.04-0.18-0.05  c-0.13-0.03-0.27-0.03-0.4,0c-0.06,0.01-0.12,0.03-0.18,0.05c-0.06,0.03-0.12,0.06-0.18,0.1c-0.05,0.03-0.1,0.08-0.15,0.12  c-0.04,0.05-0.08,0.1-0.12,0.15c-0.04,0.06-0.07,0.12-0.09,0.18c-0.03,0.06-0.05,0.12-0.06,0.18c-0.01,0.07-0.02,0.13-0.02,0.2  c0,0.13,0.02,0.26,0.08,0.38C24,32.21,24.07,32.32,24.16,32.42z"/><path d="M34.2,32.09c0.03,0.06,0.06,0.12,0.1,0.17c0.03,0.06,0.07,0.11,0.12,0.15c0.05,0.05,0.1,0.09,0.15,0.13  c0.06,0.04,0.11,0.07,0.17,0.09c0.06,0.03,0.13,0.05,0.19,0.06c0.07,0.01,0.13,0.02,0.2,0.02c0.06,0,0.13-0.01,0.19-0.02  c0.07-0.01,0.13-0.03,0.19-0.06c0.06-0.02,0.12-0.05,0.17-0.09c0.06-0.04,0.11-0.08,0.15-0.13c0.05-0.04,0.09-0.09,0.13-0.15  c0.03-0.05,0.06-0.11,0.09-0.17c0.02-0.06,0.04-0.12,0.06-0.19c0.01-0.06,0.02-0.13,0.02-0.19c0-0.27-0.11-0.52-0.3-0.71  c-0.04-0.04-0.09-0.09-0.15-0.12c-0.05-0.04-0.11-0.07-0.17-0.09c-0.06-0.03-0.12-0.05-0.19-0.06c-0.13-0.03-0.26-0.03-0.39,0  c-0.06,0.01-0.13,0.03-0.19,0.06c-0.06,0.02-0.11,0.05-0.17,0.09c-0.05,0.03-0.1,0.08-0.15,0.12c-0.19,0.19-0.29,0.44-0.29,0.71  c0,0.06,0,0.13,0.02,0.19C34.16,31.97,34.18,32.03,34.2,32.09z"/></svg>